<svg xmlns="http://www.w3.org/2000/svg" xmlns:xlink="http://www.w3.org/1999/xlink" width="500" zoomAndPan="magnify" viewBox="0 0 375 374.999991" height="500" preserveAspectRatio="xMidYMid meet" version="1.0"><defs><g/><clipPath id="dd4d387102"><path d="M 154 115.03125 L 227 115.03125 L 227 197.53125 L 154 197.53125 Z M 154 115.03125 " clip-rule="nonzero"/></clipPath></defs><g clip-path="url(#dd4d387102)"><path fill="#f26157" d="M 216.082031 133.945312 L 216.0625 133.921875 C 216.039062 133.816406 215.996094 133.707031 215.953125 133.597656 C 215.910156 133.492188 215.867188 133.382812 215.800781 133.296875 C 215.757812 133.210938 215.695312 133.148438 215.609375 133.0625 C 215.542969 132.972656 215.457031 132.886719 215.347656 132.800781 C 215.285156 132.757812 215.199219 132.714844 215.113281 132.671875 C 214.980469 132.609375 214.851562 132.542969 214.722656 132.523438 C 214.679688 132.5 214.636719 132.480469 214.59375 132.457031 C 214.550781 132.457031 214.484375 132.480469 214.441406 132.457031 C 214.378906 132.457031 214.335938 132.4375 214.269531 132.4375 L 201.988281 132.4375 L 201.988281 126.621094 C 201.988281 120.289062 196.808594 115.117188 190.464844 115.117188 C 184.097656 115.117188 178.9375 120.289062 178.9375 126.621094 L 178.9375 132.4375 L 166.632812 132.4375 C 165.75 132.4375 164.972656 133.082031 164.820312 133.945312 L 162.878906 145.058594 L 166.613281 145.058594 L 168.167969 136.097656 L 178.9375 136.097656 L 178.9375 139.78125 C 178.9375 140.792969 179.757812 141.613281 180.773438 141.613281 C 181.785156 141.613281 182.605469 140.792969 182.605469 139.78125 L 182.605469 134.308594 C 182.605469 134.289062 182.605469 134.289062 182.605469 134.265625 C 182.605469 134.246094 182.605469 134.246094 182.605469 134.222656 L 182.605469 126.621094 C 182.605469 122.3125 186.125 118.777344 190.464844 118.777344 C 194.78125 118.777344 198.320312 122.3125 198.320312 126.621094 L 198.320312 132.4375 L 188.5625 132.4375 C 187.550781 132.4375 186.730469 133.253906 186.730469 134.265625 C 186.730469 135.277344 187.550781 136.097656 188.5625 136.097656 L 200.132812 136.097656 C 200.152344 136.097656 200.152344 136.097656 200.152344 136.097656 L 212.089844 136.097656 L 201.96875 193.976562 L 158.066406 193.976562 L 159.640625 185.015625 L 155.90625 185.015625 L 154.074219 195.484375 C 153.984375 196.023438 154.136719 196.5625 154.484375 196.992188 C 154.828125 197.402344 155.347656 197.640625 155.886719 197.640625 L 225.019531 197.640625 C 225.558594 197.640625 226.078125 197.402344 226.421875 196.992188 C 226.765625 196.5625 226.917969 196.023438 226.832031 195.484375 Z M 205.703125 194 L 214.269531 144.949219 L 222.839844 194 Z M 205.703125 194 " fill-opacity="1" fill-rule="nonzero"/></g><path fill="#3581b8" d="M 170.496094 181.375 L 149.820312 181.375 C 148.804688 181.375 147.984375 182.195312 147.984375 183.207031 C 147.984375 184.21875 148.804688 185.039062 149.820312 185.039062 L 170.496094 185.039062 C 171.511719 185.039062 172.332031 184.21875 172.332031 183.207031 C 172.332031 182.195312 171.511719 181.375 170.496094 181.375 Z M 170.496094 181.375 " fill-opacity="1" fill-rule="nonzero"/><path fill="#3581b8" d="M 177.273438 145.082031 L 157.136719 145.082031 C 156.125 145.082031 155.304688 145.898438 155.304688 146.910156 C 155.304688 147.921875 156.125 148.742188 157.136719 148.742188 L 177.273438 148.742188 C 178.289062 148.742188 179.109375 147.921875 179.109375 146.910156 C 179.109375 145.898438 178.289062 145.082031 177.273438 145.082031 Z M 177.273438 145.082031 " fill-opacity="1" fill-rule="nonzero"/><path fill="#3581b8" d="M 149.820312 157.8125 L 173.347656 157.8125 C 174.363281 157.8125 175.179688 156.992188 175.179688 155.980469 C 175.179688 154.96875 174.363281 154.148438 173.347656 154.148438 L 149.820312 154.148438 C 148.804688 154.148438 147.984375 154.96875 147.984375 155.980469 C 147.984375 156.992188 148.804688 157.8125 149.820312 157.8125 Z M 149.820312 157.8125 " fill-opacity="1" fill-rule="nonzero"/><path fill="#3581b8" d="M 172.332031 165.046875 C 172.332031 164.035156 171.511719 163.21875 170.496094 163.21875 L 141.101562 163.21875 C 140.085938 163.21875 139.265625 164.035156 139.265625 165.046875 C 139.265625 166.0625 140.085938 166.878906 141.101562 166.878906 L 170.496094 166.878906 C 171.511719 166.878906 172.332031 166.0625 172.332031 165.046875 Z M 172.332031 165.046875 " fill-opacity="1" fill-rule="nonzero"/><path fill="#3581b8" d="M 175.722656 172.285156 L 153.144531 172.285156 C 152.128906 172.285156 151.308594 173.105469 151.308594 174.117188 C 151.308594 175.128906 152.128906 175.949219 153.144531 175.949219 L 175.722656 175.949219 C 176.734375 175.949219 177.554688 175.128906 177.554688 174.117188 C 177.554688 173.105469 176.734375 172.285156 175.722656 172.285156 Z M 175.722656 172.285156 " fill-opacity="1" fill-rule="nonzero"/><g fill="#f26157" fill-opacity="1"><g transform="translate(145.319628, 227.689804)"><g><path d="M 3.390625 0 L 14.546875 0 C 15.679688 0 16.285156 -0.695312 16.285156 -1.449219 C 16.285156 -2.144531 15.679688 -2.898438 14.546875 -2.898438 L 5.042969 -2.898438 L 5.042969 -16.980469 C 5.042969 -17.96875 4.171875 -18.460938 3.363281 -18.460938 C 2.492188 -18.460938 1.652344 -17.96875 1.652344 -16.980469 L 1.652344 -1.566406 C 1.652344 -0.550781 2.144531 0 3.390625 0 Z M 3.390625 0 "/></g></g></g><g fill="#f26157" fill-opacity="1"><g transform="translate(163.367946, 227.689804)"><g><path d="M 19.5625 -9.214844 C 19.5625 -14.925781 15.792969 -18.75 10.144531 -18.75 C 4.464844 -18.75 0.636719 -14.925781 0.636719 -9.214844 C 0.636719 -3.507812 4.464844 0.289062 10.144531 0.289062 C 15.792969 0.289062 19.5625 -3.507812 19.5625 -9.214844 Z M 10.144531 -2.667969 C 6.492188 -2.667969 4.058594 -5.304688 4.058594 -9.214844 C 4.058594 -13.15625 6.492188 -15.792969 10.144531 -15.792969 C 13.765625 -15.792969 16.171875 -13.15625 16.171875 -9.214844 C 16.171875 -5.304688 13.765625 -2.667969 10.144531 -2.667969 Z M 10.144531 -2.667969 "/></g></g></g><g fill="#f26157" fill-opacity="1"><g transform="translate(186.311976, 227.689804)"><g><path d="M 17.792969 -4.464844 L 17.792969 -9.011719 C 17.792969 -9.941406 17.386719 -10.578125 16.054688 -10.578125 L 10.289062 -10.578125 C 9.214844 -10.578125 8.695312 -9.851562 8.695312 -9.101562 C 8.695312 -8.402344 9.1875 -7.707031 10.289062 -7.707031 L 14.519531 -7.707031 L 14.519531 -4.753906 C 13.390625 -3.449219 11.5625 -2.636719 9.882812 -2.636719 C 6.316406 -2.636719 3.941406 -5.417969 3.882812 -9.300781 C 3.882812 -13.214844 6.316406 -15.882812 9.941406 -15.882812 C 11.503906 -15.882812 13.15625 -15.332031 14.402344 -14.027344 C 16.082031 -12.257812 18.519531 -14.257812 16.867188 -15.996094 C 15.15625 -17.824219 12.492188 -18.75 9.941406 -18.75 C 4.316406 -18.75 0.550781 -15.011719 0.550781 -9.390625 C 0.433594 -3.621094 4.144531 0.289062 9.851562 0.289062 C 12.578125 0.289062 15.589844 -1.1875 17.359375 -3.246094 C 17.707031 -3.621094 17.792969 -4.085938 17.792969 -4.464844 Z M 17.792969 -4.464844 "/></g></g></g><g fill="#f26157" fill-opacity="1"><g transform="translate(208.09726, 227.689804)"><g><path d="M 19.5625 -9.214844 C 19.5625 -14.925781 15.792969 -18.75 10.144531 -18.75 C 4.464844 -18.75 0.636719 -14.925781 0.636719 -9.214844 C 0.636719 -3.507812 4.464844 0.289062 10.144531 0.289062 C 15.792969 0.289062 19.5625 -3.507812 19.5625 -9.214844 Z M 10.144531 -2.667969 C 6.492188 -2.667969 4.058594 -5.304688 4.058594 -9.214844 C 4.058594 -13.15625 6.492188 -15.792969 10.144531 -15.792969 C 13.765625 -15.792969 16.171875 -13.15625 16.171875 -9.214844 C 16.171875 -5.304688 13.765625 -2.667969 10.144531 -2.667969 Z M 10.144531 -2.667969 "/></g></g></g><g fill="#f26157" fill-opacity="1"><g transform="translate(137.273637, 245.361313)"><g><path d="M 1.410156 -7.621094 C 1.066406 -7.621094 0.730469 -7.355469 0.730469 -6.9375 L 0.730469 -0.621094 C 0.730469 -0.203125 1.078125 0 1.421875 0 C 1.757812 0 2.117188 -0.203125 2.117188 -0.621094 L 2.117188 -4.640625 L 3.875 -1.902344 C 4.007812 -1.664062 4.28125 -1.519531 4.523438 -1.519531 C 4.761719 -1.519531 5.011719 -1.625 5.144531 -1.867188 L 6.925781 -4.652344 L 6.925781 -0.621094 C 6.925781 -0.203125 7.261719 0 7.609375 0 C 7.941406 0 8.3125 -0.203125 8.3125 -0.621094 L 8.3125 -6.949219 C 8.3125 -7.382812 7.992188 -7.621094 7.644531 -7.621094 C 7.417969 -7.621094 7.164062 -7.511719 7.011719 -7.273438 L 4.523438 -3.347656 L 2.023438 -7.261719 C 1.878906 -7.488281 1.640625 -7.621094 1.410156 -7.621094 Z M 1.410156 -7.621094 "/></g></g></g><g fill="#f26157" fill-opacity="1"><g transform="translate(148.260471, 245.361313)"><g><path d="M 3.910156 -7.738281 C 3.601562 -7.738281 3.410156 -7.667969 3.289062 -7.40625 L -0.121094 -0.730469 C -0.335938 -0.261719 0.132812 0.121094 0.550781 0.121094 C 0.777344 0.121094 1.027344 0.0234375 1.148438 -0.226562 L 1.984375 -1.890625 L 5.835938 -1.890625 L 6.675781 -0.226562 C 6.792969 0 7.058594 0.121094 7.285156 0.121094 C 7.738281 0.121094 8.21875 -0.238281 7.90625 -0.765625 L 4.523438 -7.40625 C 4.402344 -7.644531 4.164062 -7.738281 3.910156 -7.738281 Z M 3.910156 -5.71875 L 5.25 -3.050781 L 2.570312 -3.050781 Z M 3.910156 -5.71875 "/></g></g></g><g fill="#f26157" fill-opacity="1"><g transform="translate(157.992231, 245.361313)"><g><path d="M 6.902344 -1.171875 L 5.46875 -2.679688 C 6.6875 -3.027344 7.285156 -3.910156 7.285156 -5.035156 C 7.285156 -6.472656 6.195312 -7.621094 4.054688 -7.621094 L 1.386719 -7.621094 C 0.980469 -7.621094 0.695312 -7.367188 0.695312 -7 L 0.695312 -0.609375 C 0.695312 -0.214844 1.027344 0 1.386719 0 C 1.722656 0 2.082031 -0.214844 2.082031 -0.621094 L 2.082031 -2.511719 L 3.886719 -2.511719 L 6.027344 -0.226562 C 6.628906 0.417969 7.632812 -0.40625 6.902344 -1.171875 Z M 2.082031 -3.671875 L 2.082031 -6.410156 L 4.066406 -6.410156 C 5.191406 -6.410156 5.875 -5.8125 5.886719 -5.023438 C 5.910156 -4.292969 5.347656 -3.671875 4.066406 -3.671875 Z M 2.082031 -3.671875 "/></g></g></g><g fill="#f26157" fill-opacity="1"><g transform="translate(167.245857, 245.361313)"><g><path d="M 6.832031 -1.066406 L 3.949219 -4.128906 L 6.722656 -6.53125 C 6.878906 -6.675781 6.960938 -6.84375 6.960938 -7 C 6.960938 -7.308594 6.652344 -7.621094 6.269531 -7.621094 C 6.089844 -7.621094 5.921875 -7.558594 5.765625 -7.429688 L 2.070312 -4.152344 L 2.070312 -7.011719 C 2.070312 -7.429688 1.710938 -7.621094 1.363281 -7.621094 C 1.015625 -7.621094 0.683594 -7.429688 0.683594 -7.011719 L 0.683594 -0.621094 C 0.683594 -0.214844 1.015625 0 1.363281 0 C 1.710938 0 2.070312 -0.214844 2.070312 -0.621094 L 2.070312 -2.5 L 2.964844 -3.289062 L 5.824219 -0.226562 C 5.992188 -0.046875 6.195312 0 6.386719 0 C 6.746094 0 7.058594 -0.238281 7.058594 -0.574219 C 7.058594 -0.71875 6.984375 -0.875 6.832031 -1.066406 Z M 6.832031 -1.066406 "/></g></g></g><g fill="#f26157" fill-opacity="1"><g transform="translate(176.140894, 245.361313)"><g><path d="M 6.234375 -1.195312 L 2.058594 -1.195312 L 2.058594 -3.183594 L 6.015625 -3.183594 C 6.4375 -3.183594 6.640625 -3.46875 6.640625 -3.757812 C 6.640625 -4.054688 6.425781 -4.355469 6.015625 -4.355469 L 2.058594 -4.355469 L 2.058594 -6.449219 L 6.234375 -6.449219 C 6.640625 -6.449219 6.867188 -6.757812 6.867188 -7.046875 C 6.867188 -7.34375 6.664062 -7.621094 6.234375 -7.621094 L 1.484375 -7.621094 C 1.003906 -7.621094 0.695312 -7.296875 0.695312 -6.914062 L 0.695312 -0.71875 C 0.695312 -0.324219 1.003906 0 1.484375 0 L 6.234375 0 C 6.675781 0 6.890625 -0.285156 6.890625 -0.574219 C 6.890625 -0.875 6.652344 -1.195312 6.234375 -1.195312 Z M 6.234375 -1.195312 "/></g></g></g><g fill="#f26157" fill-opacity="1"><g transform="translate(185.179372, 245.361313)"><g><path d="M 6.195312 -7.621094 L 0.371094 -7.621094 C -0.09375 -7.621094 -0.300781 -7.308594 -0.300781 -7 C -0.300781 -6.699219 -0.09375 -6.386719 0.371094 -6.386719 L 2.582031 -6.386719 L 2.582031 -0.632812 C 2.582031 -0.203125 2.941406 0 3.277344 0 C 3.589844 0 3.984375 -0.203125 3.984375 -0.632812 L 3.972656 -6.386719 L 6.195312 -6.386719 C 6.652344 -6.386719 6.902344 -6.699219 6.902344 -7 C 6.902344 -7.308594 6.652344 -7.621094 6.195312 -7.621094 Z M 6.195312 -7.621094 "/></g></g></g><g fill="#f26157" fill-opacity="1"><g transform="translate(193.620181, 245.361313)"><g><path d="M 2.070312 -2.117188 L 3.792969 -2.117188 C 5.800781 -2.117188 6.972656 -3.195312 6.972656 -4.808594 C 6.972656 -6.496094 5.8125 -7.621094 3.828125 -7.621094 L 1.386719 -7.621094 C 1.003906 -7.621094 0.695312 -7.367188 0.695312 -7 L 0.695312 -0.597656 C 0.695312 -0.203125 1.027344 0 1.375 0 C 1.710938 0 2.070312 -0.191406 2.070312 -0.609375 Z M 2.070312 -6.4375 L 3.839844 -6.4375 C 4.976562 -6.4375 5.609375 -5.789062 5.609375 -4.808594 C 5.609375 -3.898438 4.964844 -3.300781 3.792969 -3.300781 L 2.070312 -3.300781 Z M 2.070312 -6.4375 "/></g></g></g><g fill="#f26157" fill-opacity="1"><g transform="translate(202.670609, 245.361313)"><g><path d="M 1.398438 0 L 6.003906 0 C 6.472656 0 6.722656 -0.285156 6.722656 -0.597656 C 6.722656 -0.886719 6.472656 -1.195312 6.003906 -1.195312 L 2.082031 -1.195312 L 2.082031 -7.011719 C 2.082031 -7.417969 1.722656 -7.621094 1.386719 -7.621094 C 1.027344 -7.621094 0.683594 -7.417969 0.683594 -7.011719 L 0.683594 -0.644531 C 0.683594 -0.226562 0.886719 0 1.398438 0 Z M 1.398438 0 "/></g></g></g><g fill="#f26157" fill-opacity="1"><g transform="translate(210.956028, 245.361313)"><g><path d="M 3.910156 -7.738281 C 3.601562 -7.738281 3.410156 -7.667969 3.289062 -7.40625 L -0.121094 -0.730469 C -0.335938 -0.261719 0.132812 0.121094 0.550781 0.121094 C 0.777344 0.121094 1.027344 0.0234375 1.148438 -0.226562 L 1.984375 -1.890625 L 5.835938 -1.890625 L 6.675781 -0.226562 C 6.792969 0 7.058594 0.121094 7.285156 0.121094 C 7.738281 0.121094 8.21875 -0.238281 7.90625 -0.765625 L 4.523438 -7.40625 C 4.402344 -7.644531 4.164062 -7.738281 3.910156 -7.738281 Z M 3.910156 -5.71875 L 5.25 -3.050781 L 2.570312 -3.050781 Z M 3.910156 -5.71875 "/></g></g></g><g fill="#f26157" fill-opacity="1"><g transform="translate(220.687786, 245.361313)"><g><path d="M 4.1875 -7.738281 C 1.972656 -7.738281 0.273438 -6.207031 0.273438 -3.898438 C 0.273438 -1.484375 1.855469 0.121094 4.210938 0.121094 C 5.382812 0.121094 6.6875 -0.441406 7.34375 -1.363281 C 7.929688 -2.175781 6.902344 -2.859375 6.257812 -2.082031 C 5.800781 -1.53125 4.988281 -1.101562 4.234375 -1.101562 C 2.679688 -1.101562 1.652344 -2.214844 1.652344 -3.898438 C 1.652344 -5.46875 2.65625 -6.519531 4.175781 -6.519531 C 4.917969 -6.519531 5.574219 -6.386719 6.171875 -5.742188 C 6.792969 -5.070312 7.8125 -5.824219 7.164062 -6.554688 C 6.386719 -7.429688 5.359375 -7.738281 4.1875 -7.738281 Z M 4.1875 -7.738281 "/></g></g></g><g fill="#f26157" fill-opacity="1"><g transform="translate(230.060943, 245.361313)"><g><path d="M 6.234375 -1.195312 L 2.058594 -1.195312 L 2.058594 -3.183594 L 6.015625 -3.183594 C 6.4375 -3.183594 6.640625 -3.46875 6.640625 -3.757812 C 6.640625 -4.054688 6.425781 -4.355469 6.015625 -4.355469 L 2.058594 -4.355469 L 2.058594 -6.449219 L 6.234375 -6.449219 C 6.640625 -6.449219 6.867188 -6.757812 6.867188 -7.046875 C 6.867188 -7.34375 6.664062 -7.621094 6.234375 -7.621094 L 1.484375 -7.621094 C 1.003906 -7.621094 0.695312 -7.296875 0.695312 -6.914062 L 0.695312 -0.71875 C 0.695312 -0.324219 1.003906 0 1.484375 0 L 6.234375 0 C 6.675781 0 6.890625 -0.285156 6.890625 -0.574219 C 6.890625 -0.875 6.652344 -1.195312 6.234375 -1.195312 Z M 6.234375 -1.195312 "/></g></g></g></svg>