<svg xmlns="http://www.w3.org/2000/svg" xmlns:xlink="http://www.w3.org/1999/xlink" width="500" zoomAndPan="magnify" viewBox="0 0 375 374.999991" height="500" preserveAspectRatio="xMidYMid meet" version="1.0"><defs><clipPath id="2e5f3ab7dc"><path d="M 100 64 L 319 64 L 319 311.335938 L 100 311.335938 Z M 100 64 " clip-rule="nonzero"/></clipPath></defs><g clip-path="url(#2e5f3ab7dc)"><path fill="#f26157" d="M 286.285156 120.574219 L 286.222656 120.511719 C 286.15625 120.1875 286.027344 119.863281 285.898438 119.539062 C 285.769531 119.21875 285.640625 118.894531 285.449219 118.636719 C 285.316406 118.378906 285.125 118.183594 284.867188 117.925781 C 284.671875 117.667969 284.414062 117.40625 284.089844 117.148438 C 283.898438 117.019531 283.640625 116.890625 283.382812 116.761719 C 282.992188 116.566406 282.605469 116.375 282.21875 116.308594 C 282.089844 116.246094 281.960938 116.179688 281.832031 116.117188 C 281.703125 116.117188 281.507812 116.179688 281.378906 116.117188 C 281.1875 116.117188 281.054688 116.050781 280.863281 116.050781 L 244.121094 116.050781 L 244.121094 98.601562 C 244.121094 79.605469 228.625 64.09375 209.640625 64.09375 C 190.589844 64.09375 175.15625 79.605469 175.15625 98.601562 L 175.15625 116.050781 L 138.351562 116.050781 C 135.703125 116.050781 133.378906 117.988281 132.925781 120.574219 L 127.113281 153.917969 L 138.285156 153.917969 L 142.933594 127.035156 L 175.15625 127.035156 L 175.15625 138.085938 C 175.15625 141.125 177.609375 143.578125 180.644531 143.578125 C 183.679688 143.578125 186.132812 141.125 186.132812 138.085938 L 186.132812 121.671875 C 186.132812 121.609375 186.132812 121.609375 186.132812 121.542969 C 186.132812 121.480469 186.132812 121.480469 186.132812 121.414062 L 186.132812 98.601562 C 186.132812 85.679688 196.660156 75.082031 209.640625 75.082031 C 222.554688 75.082031 233.144531 85.679688 233.144531 98.601562 L 233.144531 116.050781 L 203.957031 116.050781 C 200.921875 116.050781 198.46875 118.507812 198.46875 121.542969 C 198.46875 124.582031 200.921875 127.035156 203.957031 127.035156 L 238.566406 127.035156 C 238.632812 127.035156 238.632812 127.035156 238.632812 127.035156 L 274.339844 127.035156 L 244.054688 300.675781 L 112.714844 300.675781 L 117.429688 273.792969 L 106.257812 273.792969 L 100.769531 305.199219 C 100.511719 306.8125 100.964844 308.429688 101.996094 309.722656 C 103.03125 310.949219 104.578125 311.660156 106.195312 311.660156 L 313.019531 311.660156 C 314.632812 311.660156 316.183594 310.949219 317.21875 309.722656 C 318.25 308.429688 318.703125 306.8125 318.445312 305.199219 Z M 255.226562 300.738281 L 280.863281 153.597656 L 306.5 300.738281 Z M 255.226562 300.738281 " fill-opacity="1" fill-rule="nonzero"/></g><path fill="#3581b8" d="M 149.910156 262.871094 L 88.046875 262.871094 C 85.015625 262.871094 82.558594 265.328125 82.558594 268.363281 C 82.558594 271.402344 85.015625 273.855469 88.046875 273.855469 L 149.910156 273.855469 C 152.945312 273.855469 155.398438 271.402344 155.398438 268.363281 C 155.398438 265.328125 152.945312 262.871094 149.910156 262.871094 Z M 149.910156 262.871094 " fill-opacity="1" fill-rule="nonzero"/><path fill="#3581b8" d="M 170.183594 153.984375 L 109.9375 153.984375 C 106.902344 153.984375 104.449219 156.4375 104.449219 159.476562 C 104.449219 162.515625 106.902344 164.96875 109.9375 164.96875 L 170.183594 164.96875 C 173.21875 164.96875 175.671875 162.515625 175.671875 159.476562 C 175.671875 156.4375 173.21875 153.984375 170.183594 153.984375 Z M 170.183594 153.984375 " fill-opacity="1" fill-rule="nonzero"/><path fill="#3581b8" d="M 88.046875 192.175781 L 158.433594 192.175781 C 161.46875 192.175781 163.921875 189.71875 163.921875 186.683594 C 163.921875 183.644531 161.46875 181.1875 158.433594 181.1875 L 88.046875 181.1875 C 85.015625 181.1875 82.558594 183.644531 82.558594 186.683594 C 82.558594 189.71875 85.015625 192.175781 88.046875 192.175781 Z M 88.046875 192.175781 " fill-opacity="1" fill-rule="nonzero"/><path fill="#3581b8" d="M 155.398438 213.886719 C 155.398438 210.851562 152.945312 208.394531 149.910156 208.394531 L 61.960938 208.394531 C 58.925781 208.394531 56.472656 210.851562 56.472656 213.886719 C 56.472656 216.925781 58.925781 219.378906 61.960938 219.378906 L 149.910156 219.378906 C 152.945312 219.378906 155.398438 216.925781 155.398438 213.886719 Z M 155.398438 213.886719 " fill-opacity="1" fill-rule="nonzero"/><path fill="#3581b8" d="M 165.535156 235.601562 L 97.992188 235.601562 C 94.957031 235.601562 92.503906 238.054688 92.503906 241.09375 C 92.503906 244.128906 94.957031 246.585938 97.992188 246.585938 L 165.535156 246.585938 C 168.570312 246.585938 171.023438 244.128906 171.023438 241.09375 C 171.023438 238.054688 168.570312 235.601562 165.535156 235.601562 Z M 165.535156 235.601562 " fill-opacity="1" fill-rule="nonzero"/></svg>